# xmcd
#
# Track frame offsets:
#	150
#	14125
#	25788
#	43840
#	58037
#	75768
#	92869
#	107693
#	133588
#	147646
#	164928
#	185636
#	201611
#	232061
#
# Disc length: 3202 seconds
#
# Revision: 0
# Processed by: cddbd v1.5.2PL0 Copyright (c) Steve Scherf et al.
# Submitted via: VUPlayer 2.49
#
DISCID=d40c800e
DTITLE=The Flavor - The Flavor
DYEAR=2011
DGENRE=Blues
TTITLE0=Hot Sauce
TTITLE1=Goin' Up North
TTITLE2=Before You Let Me Go
TTITLE3=The Truth
TTITLE4=Little Girl
TTITLE5=I've Lost Your Love
TTITLE6=Hot and Bothered
TTITLE7=Vertigo
TTITLE8=My Guitar
TTITLE9=Odd Man Out
TTITLE10=Bleedin' Soul
TTITLE11=Short-Haired Woman
TTITLE12=Closer To You
TTITLE13=End
EXTD=
EXTT0=
EXTT1=
EXTT2=
EXTT3=
EXTT4=
EXTT5=
EXTT6=
EXTT7=
EXTT8=
EXTT9=
EXTT10=
EXTT11=
EXTT12=
EXTT13=
PLAYORDER=
